<svg width="496" height="84" viewBox="0 0 496 84" fill="none" xmlns="http://www.w3.org/2000/svg">
<g clip-path="url(#clip0_71_49)">
<path d="M50.0905 52.7523L63.2333 61.347L73.3529 61.1697L47.0615 43.9766L32.8628 61.8828L42.9912 61.7054L50.0905 52.7523Z" fill="#292929"/>
<path d="M67.3126 43.6179L74.4119 34.6648L71.3887 25.8928L57.1899 43.799L83.4813 60.9922L80.4554 52.2126L67.3126 43.6179Z" fill="#292929"/>
<path d="M51.1408 26.2476L37.9979 17.6529L27.8727 17.8264L54.164 35.0195L68.3628 17.1133L58.2401 17.2945L51.1408 26.2476Z" fill="#292929"/>
<path d="M33.9187 35.3819L26.8193 44.335L29.8426 53.1069L44.0414 35.2007L17.75 18.0076L20.7702 26.7834L33.9187 35.3819Z" fill="#292929"/>
</g>
<path d="M121.213 60.34C117.793 60.34 114.813 59.53 112.273 57.91C109.753 56.27 107.793 53.93 106.393 50.89C104.993 47.85 104.293 44.2 104.293 39.94C104.293 35.54 105.013 31.85 106.453 28.87C107.913 25.87 109.913 23.61 112.453 22.09C115.013 20.55 117.933 19.78 121.213 19.78C125.753 19.78 129.293 20.88 131.833 23.08C134.393 25.28 136.033 28.14 136.753 31.66L129.193 33.04C128.573 31 127.583 29.35 126.223 28.09C124.863 26.83 123.193 26.2 121.213 26.2C119.473 26.2 117.903 26.71 116.503 27.73C115.103 28.73 113.983 30.25 113.143 32.29C112.323 34.33 111.913 36.88 111.913 39.94C111.913 42.82 112.273 45.3 112.993 47.38C113.733 49.46 114.793 51.06 116.173 52.18C117.553 53.3 119.233 53.86 121.213 53.86C123.753 53.86 125.713 53.19 127.093 51.85C128.493 50.49 129.193 48.76 129.193 46.66H136.753C136.753 49.56 136.123 52.03 134.863 54.07C133.623 56.09 131.843 57.64 129.523 58.72C127.203 59.8 124.433 60.34 121.213 60.34ZM164.461 30.28H171.541V59.5H164.461V30.28ZM144.481 30.28H151.561V48.16C151.561 50.06 152.031 51.49 152.971 52.45C153.911 53.39 155.201 53.86 156.841 53.86C158.241 53.86 159.511 53.5 160.651 52.78C161.811 52.04 162.731 50.96 163.411 49.54C164.111 48.1 164.461 46.32 164.461 44.2H166.381C166.381 47.76 165.921 50.71 165.001 53.05C164.081 55.39 162.811 57.14 161.191 58.3C159.571 59.46 157.701 60.04 155.581 60.04C153.501 60.04 151.621 59.67 149.941 58.93C148.261 58.19 146.931 57 145.951 55.36C144.971 53.72 144.481 51.56 144.481 48.88V30.28ZM182.698 59.5V18.34H189.778V59.5H182.698ZM205.119 25.06C203.739 25.06 202.659 24.7 201.879 23.98C201.119 23.24 200.739 22.22 200.739 20.92C200.739 19.66 201.119 18.66 201.879 17.92C202.659 17.16 203.739 16.78 205.119 16.78C206.479 16.78 207.549 17.16 208.329 17.92C209.109 18.66 209.499 19.66 209.499 20.92C209.499 22.22 209.109 23.24 208.329 23.98C207.549 24.7 206.479 25.06 205.119 25.06ZM201.579 59.5V30.28H208.659V59.5H201.579ZM240.647 59.5V42.46C240.647 40.3 240.127 38.67 239.087 37.57C238.047 36.47 236.687 35.92 235.007 35.92C233.587 35.92 232.327 36.31 231.227 37.09C230.147 37.87 229.297 39.05 228.677 40.63C228.057 42.19 227.747 44.14 227.747 46.48H225.407C225.407 42.7 225.877 39.56 226.817 37.06C227.757 34.54 229.087 32.66 230.807 31.42C232.527 30.18 234.547 29.56 236.867 29.56C239.267 29.56 241.267 30.1 242.867 31.18C244.487 32.24 245.697 33.74 246.497 35.68C247.317 37.62 247.727 39.88 247.727 42.46V59.5H240.647ZM220.667 59.5V30.4H226.847L227.747 36.16V59.5H220.667ZM276.589 59.5L275.689 52.42V40.72C275.689 38.68 275.269 37.17 274.429 36.19C273.609 35.21 272.209 34.72 270.229 34.72C269.089 34.72 268.099 34.89 267.259 35.23C266.419 35.57 265.769 36.06 265.309 36.7C264.869 37.32 264.649 38.08 264.649 38.98H256.909C256.909 36.78 257.439 34.99 258.499 33.61C259.559 32.21 261.079 31.19 263.059 30.55C265.059 29.89 267.449 29.56 270.229 29.56C272.749 29.56 274.949 29.97 276.829 30.79C278.709 31.59 280.169 32.83 281.209 34.51C282.249 36.19 282.769 38.34 282.769 40.96V59.5H276.589ZM267.049 60.34C264.549 60.34 262.459 59.91 260.779 59.05C259.119 58.17 257.869 57.02 257.029 55.6C256.189 54.18 255.769 52.64 255.769 50.98C255.769 49.14 256.249 47.6 257.209 46.36C258.189 45.1 259.569 44.16 261.349 43.54C263.129 42.9 265.229 42.58 267.649 42.58C269.229 42.58 270.719 42.7 272.119 42.94C273.539 43.18 274.949 43.5 276.349 43.9V48.04C275.249 47.68 274.049 47.4 272.749 47.2C271.449 47 270.229 46.9 269.089 46.9C267.409 46.9 266.029 47.21 264.949 47.83C263.869 48.45 263.329 49.5 263.329 50.98C263.329 52.06 263.769 52.99 264.649 53.77C265.529 54.55 266.929 54.94 268.849 54.94C270.309 54.94 271.549 54.62 272.569 53.98C273.589 53.34 274.359 52.54 274.879 51.58C275.419 50.62 275.689 49.66 275.689 48.7H277.369C277.369 50.8 276.979 52.74 276.199 54.52C275.419 56.28 274.259 57.69 272.719 58.75C271.199 59.81 269.309 60.34 267.049 60.34ZM293.147 59.5V30.28H300.227V59.5H293.147ZM298.487 46.72C298.487 42.9 298.917 39.74 299.777 37.24C300.637 34.74 301.787 32.89 303.227 31.69C304.687 30.47 306.307 29.86 308.087 29.86C308.567 29.86 309.017 29.89 309.437 29.95C309.877 30.01 310.307 30.1 310.727 30.22L310.607 37.3C310.087 37.18 309.527 37.08 308.927 37C308.327 36.92 307.787 36.88 307.307 36.88C305.747 36.88 304.437 37.26 303.377 38.02C302.337 38.76 301.547 39.86 301.007 41.32C300.487 42.78 300.227 44.58 300.227 46.72H298.487ZM320.842 25.06C319.462 25.06 318.382 24.7 317.602 23.98C316.842 23.24 316.462 22.22 316.462 20.92C316.462 19.66 316.842 18.66 317.602 17.92C318.382 17.16 319.462 16.78 320.842 16.78C322.202 16.78 323.272 17.16 324.052 17.92C324.832 18.66 325.222 19.66 325.222 20.92C325.222 22.22 324.832 23.24 324.052 23.98C323.272 24.7 322.202 25.06 320.842 25.06ZM317.302 59.5V30.28H324.382V59.5H317.302ZM354.929 59.5L354.029 52.42V40.72C354.029 38.68 353.609 37.17 352.769 36.19C351.949 35.21 350.549 34.72 348.569 34.72C347.429 34.72 346.439 34.89 345.599 35.23C344.759 35.57 344.109 36.06 343.649 36.7C343.209 37.32 342.989 38.08 342.989 38.98H335.249C335.249 36.78 335.779 34.99 336.839 33.61C337.899 32.21 339.419 31.19 341.399 30.55C343.399 29.89 345.789 29.56 348.569 29.56C351.089 29.56 353.289 29.97 355.169 30.79C357.049 31.59 358.509 32.83 359.549 34.51C360.589 36.19 361.109 38.34 361.109 40.96V59.5H354.929ZM345.389 60.34C342.889 60.34 340.799 59.91 339.119 59.05C337.459 58.17 336.209 57.02 335.369 55.6C334.529 54.18 334.109 52.64 334.109 50.98C334.109 49.14 334.589 47.6 335.549 46.36C336.529 45.1 337.909 44.16 339.689 43.54C341.469 42.9 343.569 42.58 345.989 42.58C347.569 42.58 349.059 42.7 350.459 42.94C351.879 43.18 353.289 43.5 354.689 43.9V48.04C353.589 47.68 352.389 47.4 351.089 47.2C349.789 47 348.569 46.9 347.429 46.9C345.749 46.9 344.369 47.21 343.289 47.83C342.209 48.45 341.669 49.5 341.669 50.98C341.669 52.06 342.109 52.99 342.989 53.77C343.869 54.55 345.269 54.94 347.189 54.94C348.649 54.94 349.889 54.62 350.909 53.98C351.929 53.34 352.699 52.54 353.219 51.58C353.759 50.62 354.029 49.66 354.029 48.7H355.709C355.709 50.8 355.319 52.74 354.539 54.52C353.759 56.28 352.599 57.69 351.059 58.75C349.539 59.81 347.649 60.34 345.389 60.34ZM366.867 57.88V50.8C368.467 51.72 370.027 52.39 371.547 52.81C373.087 53.23 374.507 53.44 375.807 53.44C377.527 53.44 378.777 52.94 379.557 51.94C380.337 50.94 380.727 49.42 380.727 47.38V20.56H387.867V47.38C387.867 50.52 387.377 53.04 386.397 54.94C385.417 56.84 384.067 58.22 382.347 59.08C380.627 59.92 378.647 60.34 376.407 60.34C374.647 60.34 372.967 60.1 371.367 59.62C369.767 59.16 368.267 58.58 366.867 57.88ZM409.549 60.34C406.889 60.34 404.479 59.77 402.319 58.63C400.179 57.49 398.479 55.79 397.219 53.53C395.959 51.25 395.329 48.4 395.329 44.98C395.329 41.5 395.959 38.62 397.219 36.34C398.479 34.06 400.179 32.36 402.319 31.24C404.479 30.12 406.889 29.56 409.549 29.56C412.169 29.56 414.539 30.12 416.659 31.24C418.799 32.36 420.499 34.06 421.759 36.34C423.019 38.62 423.649 41.5 423.649 44.98C423.649 48.4 423.019 51.25 421.759 53.53C420.499 55.79 418.799 57.49 416.659 58.63C414.539 59.77 412.169 60.34 409.549 60.34ZM409.309 54.16C410.709 54.16 411.949 53.82 413.029 53.14C414.129 52.44 414.989 51.41 415.609 50.05C416.249 48.69 416.569 47 416.569 44.98C416.569 41.9 415.959 39.58 414.739 38.02C413.539 36.46 411.889 35.68 409.789 35.68C408.369 35.68 407.109 36.03 406.009 36.73C404.909 37.41 404.039 38.44 403.399 39.82C402.779 41.2 402.469 42.92 402.469 44.98C402.469 48.02 403.079 50.31 404.299 51.85C405.539 53.39 407.209 54.16 409.309 54.16ZM446.953 60.34C445.133 60.34 443.463 59.83 441.943 58.81C440.443 57.79 439.243 56.27 438.343 54.25C437.443 52.21 436.993 49.66 436.993 46.6H439.153C439.153 48.06 439.483 49.34 440.143 50.44C440.803 51.54 441.653 52.4 442.693 53.02C443.733 53.62 444.813 53.92 445.933 53.92C447.313 53.92 448.543 53.54 449.623 52.78C450.703 52.02 451.553 50.96 452.173 49.6C452.813 48.24 453.133 46.64 453.133 44.8C453.133 43.02 452.823 41.47 452.203 40.15C451.583 38.81 450.723 37.77 449.623 37.03C448.543 36.29 447.293 35.92 445.873 35.92C444.693 35.92 443.593 36.21 442.573 36.79C441.553 37.35 440.723 38.17 440.083 39.25C439.463 40.31 439.153 41.6 439.153 43.12H436.993C436.993 40.18 437.413 37.7 438.253 35.68C439.113 33.66 440.323 32.14 441.883 31.12C443.463 30.08 445.333 29.56 447.493 29.56C449.853 29.56 451.993 30.19 453.913 31.45C455.853 32.69 457.393 34.46 458.533 36.76C459.693 39.04 460.273 41.72 460.273 44.8C460.273 47.92 459.673 50.65 458.473 52.99C457.293 55.31 455.693 57.12 453.673 58.42C451.653 59.7 449.413 60.34 446.953 60.34ZM432.073 59.5V18.34H439.153V52.3L436.693 59.5H432.073ZM479.788 60.34C476.988 60.34 474.578 59.96 472.558 59.2C470.558 58.42 469.018 57.31 467.938 55.87C466.858 54.41 466.308 52.66 466.288 50.62H472.828C472.888 52.06 473.458 53.11 474.538 53.77C475.618 54.43 477.088 54.76 478.948 54.76C479.968 54.76 480.868 54.61 481.648 54.31C482.448 54.01 483.068 53.6 483.508 53.08C483.948 52.56 484.168 51.98 484.168 51.34C484.168 50.52 483.868 49.88 483.268 49.42C482.688 48.94 481.748 48.5 480.448 48.1L474.088 45.82C471.808 45 470.058 43.92 468.838 42.58C467.618 41.24 467.008 39.64 467.008 37.78C467.008 35.32 468.118 33.34 470.338 31.84C472.578 30.32 475.568 29.56 479.308 29.56C483.028 29.56 485.898 30.38 487.918 32.02C489.958 33.64 491.008 35.7 491.068 38.2H484.408C484.308 37.24 483.848 36.48 483.028 35.92C482.208 35.36 480.968 35.08 479.308 35.08C477.808 35.08 476.628 35.39 475.768 36.01C474.928 36.61 474.508 37.32 474.508 38.14C474.508 39.52 475.688 40.56 478.048 41.26L484.948 43.84C487.188 44.6 488.928 45.58 490.168 46.78C491.408 47.98 492.028 49.5 492.028 51.34C492.028 52.88 491.508 54.34 490.468 55.72C489.448 57.08 488.018 58.19 486.178 59.05C484.338 59.91 482.208 60.34 479.788 60.34Z" fill="#292929"/>
<defs>
<clipPath id="clip0_71_49">
<rect width="78.5385" height="57.1362" fill="white" transform="matrix(0.836931 0.547309 -0.621322 0.783556 35.5 -4.3772)"/>
</clipPath>
</defs>
</svg>
